<svg width="73" height="73" viewBox="0 0 73 73" fill="none" xmlns="http://www.w3.org/2000/svg">
<path d="M19.6811 3.1123H53.0459C57.47 3.1123 61.7129 4.86977 64.8412 7.99809C67.9695 11.1264 69.727 15.3693 69.727 19.7934V53.1582C69.727 55.3488 69.2955 57.5179 68.4572 59.5418C67.6189 61.5656 66.3902 63.4045 64.8412 64.9535C63.2922 66.5025 61.4533 67.7312 59.4295 68.5695C57.4056 69.4078 55.2365 69.8393 53.0459 69.8393H19.6811C15.257 69.8393 11.0141 68.0818 7.88578 64.9535C4.75747 61.8252 3 57.5823 3 53.1582V19.7934C3 15.3693 4.75747 11.1264 7.88578 7.99809C11.0141 4.86977 15.257 3.1123 19.6811 3.1123Z" stroke="url(#paint0_linear)" stroke-width="5" stroke-linecap="round" stroke-linejoin="round"/>
<path d="M49.7131 34.3763C50.1253 37.1533 49.6513 39.9896 48.3585 42.4816C47.0658 44.9737 45.0201 46.9946 42.5125 48.257C40.005 49.5193 37.1632 49.9588 34.3914 49.5129C31.6196 49.067 29.0591 47.7584 27.074 45.7732C25.0888 43.7881 23.7802 41.2275 23.3343 38.4557C22.8884 35.6839 23.3279 32.8421 24.5902 30.3345C25.8525 27.8269 27.8735 25.7813 30.3655 24.4885C32.8576 23.1957 35.6938 22.7217 38.4708 23.1339C41.3026 23.5542 43.9243 24.874 45.9487 26.8984C47.973 28.9228 49.2928 31.5444 49.7131 34.3763Z" stroke="url(#paint1_linear)" stroke-width="5" stroke-linecap="round" stroke-linejoin="round"/>
<defs>
<linearGradient id="paint0_linear" x1="36.3635" y1="3.1123" x2="36.3635" y2="69.8393" gradientUnits="userSpaceOnUse">
<stop stop-color="#AE6DA8"/>
<stop offset="1" stop-color="#F8A0EF"/>
</linearGradient>
<linearGradient id="paint1_linear" x1="36.5113" y1="22.9893" x2="36.5113" y2="49.6823" gradientUnits="userSpaceOnUse">
<stop stop-color="#AE6DA8"/>
<stop offset="1" stop-color="#F8A0EF"/>
</linearGradient>
</defs>
</svg>
