<svg width="71" height="68" viewBox="0 0 71 68" fill="none" xmlns="http://www.w3.org/2000/svg">
<path d="M48.8113 22.4619C53.9729 22.4619 58.9232 24.5124 62.573 28.1622C66.2229 31.8121 68.2733 36.7623 68.2733 41.924V64.6297H55.2986V41.924C55.2986 40.2034 54.6151 38.5533 53.3985 37.3367C52.1819 36.1201 50.5318 35.4366 48.8113 35.4366C47.0907 35.4366 45.4407 36.1201 44.224 37.3367C43.0074 38.5533 42.3239 40.2034 42.3239 41.924V64.6297H29.3492V41.924C29.3492 36.7623 31.3997 31.8121 35.0495 28.1622C38.6994 24.5124 43.6496 22.4619 48.8113 22.4619V22.4619Z" stroke="#F39DEB" stroke-width="5" stroke-linecap="round" stroke-linejoin="round"/>
<path d="M3.3999 25.7056H16.3746V64.6296H3.3999V25.7056Z" stroke="#F39DEB" stroke-width="5" stroke-linecap="round" stroke-linejoin="round"/>
<path d="M9.88737 15.9747C13.4702 15.9747 16.3747 13.0702 16.3747 9.48735C16.3747 5.90448 13.4702 3 9.88737 3C6.30451 3 3.40002 5.90448 3.40002 9.48735C3.40002 13.0702 6.30451 15.9747 9.88737 15.9747Z" stroke="#F39DEB" stroke-width="5" stroke-linecap="round" stroke-linejoin="round"/>
</svg>
