<svg width="29" height="23" viewBox="0 0 29 23" fill="none" xmlns="http://www.w3.org/2000/svg">
<path d="M3.70249 1H25.2975C26.0142 1 26.7016 1.27567 27.2085 1.76638C27.7153 2.25708 28 2.92262 28 3.61657V19.2969C28 19.9908 27.7153 20.6564 27.2085 21.1471C26.7016 21.6378 26.0142 21.9135 25.2975 21.9135H3.70249C2.98575 21.9135 2.29836 21.6378 1.79154 21.1471C1.28473 20.6564 1 19.9908 1 19.2969V3.61657C1 2.92262 1.28473 2.25708 1.79154 1.76638C2.29836 1.27567 2.98575 1 3.70249 1V1Z" stroke="#54DCF2" stroke-width="2" stroke-linecap="round" stroke-linejoin="round"/>
<path d="M27.9969 3.61475L14.4979 12.7632L1 3.61475" stroke="#54DCF2" stroke-width="2" stroke-linecap="round" stroke-linejoin="round"/>
</svg>
