<svg width="71" height="57" viewBox="0 0 71 57" fill="none" xmlns="http://www.w3.org/2000/svg">
<path d="M9.89336 3.26758H61.7801C63.5023 3.26758 65.1539 3.92993 66.3716 5.10894C67.5894 6.28794 68.2735 7.88701 68.2735 9.55437V47.2292C68.2735 48.8966 67.5894 50.4956 66.3716 51.6746C65.1539 52.8536 63.5023 53.516 61.7801 53.516H9.89336C8.17122 53.516 6.51962 52.8536 5.30188 51.6746C4.08414 50.4956 3.40002 48.8966 3.40002 47.2292V9.55437C3.40002 7.88701 4.08414 6.28794 5.30188 5.10894C6.51962 3.92993 8.17122 3.26758 9.89336 3.26758V3.26758Z" stroke="#F39DEB" stroke-width="5" stroke-linecap="round" stroke-linejoin="round"/>
<path d="M68.2659 8.45801L35.8317 30.4396L3.3999 8.45801" stroke="#F39DEB" stroke-width="5" stroke-linecap="round" stroke-linejoin="round"/>
</svg>
