<svg width="27" height="27" viewBox="0 0 27 27" fill="none" xmlns="http://www.w3.org/2000/svg">
<path d="M26 19.1235V22.7668C26.0017 23.1057 25.9301 23.4411 25.7896 23.7516C25.6491 24.0621 25.4429 24.3408 25.1843 24.5696C24.9257 24.7985 24.6203 24.9726 24.2879 25.0806C23.9555 25.1886 23.6034 25.2282 23.2542 25.1969C19.387 24.791 15.6723 23.5141 12.4088 21.4688C9.37156 19.6039 6.79674 17.1154 4.86724 14.1804C2.74345 11.0122 1.4222 7.40508 1.01062 3.6514C0.978541 3.31529 1.01934 2.97642 1.13041 2.6564C1.24147 2.33638 1.42037 2.04224 1.65568 1.79277C1.89099 1.5433 2.17754 1.34396 2.49705 1.20748C2.81656 1.071 3.162 1.00038 3.51134 1.00013H7.28031C7.89119 0.994059 8.48344 1.20318 8.94632 1.58839C9.40921 1.97361 9.71103 2.50853 9.79535 3.09315C9.95463 4.25882 10.2499 5.40334 10.6754 6.50489C10.8446 6.93977 10.8811 7.4124 10.7805 7.86672C10.68 8.32103 10.4468 8.73795 10.1084 9.06801L8.51279 10.6097C10.302 13.6502 12.9075 16.1677 16.0543 17.8964L17.6499 16.3547C17.9916 16.0284 18.4228 15.8035 18.8927 15.7067C19.3625 15.6099 19.8512 15.6452 20.3009 15.8085C21.441 16.2197 22.6255 16.505 23.832 16.6589C24.4423 16.7418 24.9998 17.0385 25.3985 17.4926C25.7972 17.9466 26.0094 18.5264 25.9946 19.1218L26 19.1235Z" stroke="#54DCF2" stroke-width="2" stroke-linecap="round" stroke-linejoin="round"/>
</svg>
