<svg width="73" height="59" viewBox="0 0 73 59" fill="none" xmlns="http://www.w3.org/2000/svg">
<path opacity="0.8" d="M69.7088 3.41681C66.8223 5.38808 63.6264 6.89575 60.244 7.88176C58.4282 5.86072 56.0149 4.42851 53.3307 3.77891C50.6466 3.12931 47.8211 3.29368 45.2366 4.24978C42.6521 5.20588 40.4333 6.90755 38.8804 9.12457C37.3276 11.3416 36.5156 13.9669 36.5543 16.6454V19.5666C31.2578 19.6974 26.01 18.558 21.2783 16.25C16.5466 13.942 12.4778 10.5369 9.43431 6.33801C9.43431 6.33801 -2.63451 32.5929 24.4994 44.2665C18.2925 48.3484 10.8974 50.3961 3.3999 50.1089C30.5269 64.6992 63.6813 50.1089 63.6813 16.551C63.6816 15.7383 63.6039 14.9274 63.4492 14.1286C66.5222 11.1897 68.6896 7.48069 69.7088 3.41681V3.41681Z" stroke="#F39DEB" stroke-width="5" stroke-linecap="round" stroke-linejoin="round"/>
</svg>
